#tb 0: 1/44100
#media_type 0: audio
#codec_id 0: pcm_s16le
#sample_rate 0: 44100
#channel_layout_name 0: stereo
0,          0,          0,     1024,     4096, 0xb7e1f437
0,       1024,       1024,     1024,     4096, 0xa031042a
0,       2048,       2048,     1024,     4096, 0x9b72ed0f
0,       3072,       3072,     1024,     4096, 0xff14ed33
0,       4096,       4096,     1024,     4096, 0x96eef519
0,       5120,       5120,     1024,     4096, 0x290d0ca0
0,       6144,       6144,     1024,     4096, 0x0393fbf5
0,       7168,       7168,     1024,     4096, 0xed89ef59
0,       8192,       8192,     1024,     4096, 0xf664e969
0,       9216,       9216,     1024,     4096, 0x261a05e4
0,      10240,      10240,     1024,     4096, 0xc334ff5b
0,      11264,      11264,     1024,     4096, 0x030ffa65
0,      12288,      12288,     1024,     4096, 0xcfb4e835
0,      13312,      13312,     1024,     4096, 0xd9adf7ff
0,      14336,      14336,     1024,     4096, 0x5e9001ae
0,      15360,      15360,     1024,     4096, 0xbfaf0174
0,      16384,      16384,     1024,     4096, 0x8cf3f061
0,      17408,      17408,     1024,     4096, 0x35ffece5
0,      18432,      18432,     1024,     4096, 0x1de801e2
0,      19456,      19456,     1024,     4096, 0xa1a40372
